<?xml version="1.0" encoding="UTF-8"?><svg id="Calque_2" xmlns="http://www.w3.org/2000/svg" viewBox="0 0 380 380"><defs><style>.cls-1{fill:#6cf;}</style></defs><path class="cls-1" d="m377.53,149.75c-.23-.03-.45-.05-.68-.08,0-2.66.13-5.33-.04-7.98-.15-2.37-1.97-3.07-3.86-1.62-.52.4-1.05.86-1.42,1.4-2.39,3.47-5.1,6.78-7.03,10.49-3.19,6.11-7.16,11.95-7.99,19.07-.03.24-.12.49-.22.72-1.27,3.14-2.64,6.25-3.8,9.43-2,5.51-4.39,10.91-4.66,16.92-.21,4.81-.09,5.05,4.63,5.17,1.89.04,2.32.59,1.14,1.99-2.56,3.03-5.38,5.85-8.1,8.75-.68.72-1.46,1.35-2.08,2.12-1.18,1.46-2.23,3.01-3.41,4.47-.73.91-1.66,1.65-2.34,2.58-2.95,3.98-5.89,7.98-8.75,12.03-2.86,4.06-5.74,8.11-8.35,12.33-.81,1.31-.82,3.16-1.05,4.78-.2,1.4.62,2.09,1.94,1.83,2.91-.58,6.11-.72,8.64-2.07,4.44-2.37,8.87-5.07,12.59-8.43,7.3-6.6,14.4-13.51,18.42-22.84.28-.66.91-1.17,1.4-1.74,1.97-2.32,3.44-4.85,3.99-7.91.28-1.53.96-2.99,1.33-4.51.75-3.03,1.75-6.05,2.02-9.13.22-2.47-1.99-3.41-4.13-2.08-.98.61-1.89,1.36-2.9,1.92-.34.19-1.07.12-1.32-.14-.23-.23-.24-1-.03-1.31,1.29-1.81,2.69-3.53,4.01-5.32.81-1.09,1.63-2.2,2.29-3.38.6-1.08.84-2.37,1.48-3.43,3.42-5.64,4.45-12.11,6.06-18.31,1.33-5.08,1.52-10.46,2.22-15.71Zm-371.51.46l-.37.03c.43,4.53.7,9.09,1.37,13.59.38,2.56,1.6,4.99,2.09,7.55,1.1,5.72,3.68,10.74,6.8,15.55.94,1.46,1.66,3.13,2.85,4.35,3.64,3.73,7.39,7.38,11.28,10.84.81.72,2.59,1.02,3.65.67,1.69-.56,1.59-2.39,1.31-3.89-.89-4.8-1.76-9.62-2.88-14.37-.62-2.65-1.6-5.24-2.62-7.77-1.45-3.6-3.09-7.12-4.66-10.67-1.52-3.45-3.02-6.91-4.63-10.31-.57-1.2-1.3-2.44.06-3.31,1.65-1.06,1.36,1.09,2.12,1.57.95.6,1.98,1.4,2.99,1.42.47,0,1.3-1.59,1.4-2.52.48-4.2,1.12-8.43,1.03-12.63-.19-8.38-.64-16.76-1.35-25.11-.41-4.77-1.52-9.48-2.37-14.21-.14-.8-.53-1.56-.85-2.32-.56-1.33-1.08-2.68-1.74-3.97-.5-.98-1.18-1.87-1.78-2.8-.86.57-1.75,1.11-2.57,1.73-.32.24-.6.63-.71,1-1.53,4.96-3.85,9.74-3.89,15.08-.05,6.82-.03,13.65-.02,20.47,0,.74-.12,1.7.27,2.19,2.31,2.85,1.75,6.51,2.84,9.69.24.7-.22,1.63-.35,2.46-.7-.33-1.61-.48-2.07-1.01-1.13-1.31-1.99-2.85-3.09-4.19-.48-.59-1.39-1.35-1.93-1.23-.72.16-1.44,1-1.85,1.72-.34.6-.3,1.45-.31,2.19-.03,2.75-.01,5.49-.01,8.24Zm287.06,138.96c1.99,0,4.01.17,5.98-.04,3.12-.34,6.24-.76,9.29-1.48,1.9-.44,3.67-1.46,5.48-2.26,2.86-1.26,6.18-1.99,8.46-3.95,5.59-4.79,11.02-9.87,15.87-15.39,3.16-3.6,5.32-8.13,7.69-12.38,1.06-1.9.08-3.01-2.09-2.82-.74.07-1.49.22-2.19.47-4.35,1.57-8.82,2.88-13,4.84-6.36,2.98-12.61,6.23-18.73,9.69-5.25,2.96-10.41,6.15-15.32,9.64-3.68,2.61-6.97,5.78-10.3,8.85-.65.6-1.17,2.02-.91,2.77.45,1.31,1.59,2.21,3.3,2.1,2.15-.13,4.32-.03,6.48-.04Zm-205.36,1.22c0-.06,0-.13.01-.19,2.74,0,5.5.15,8.22-.08.97-.08,2.17-.9,2.69-1.75.34-.56-.05-2.09-.63-2.6-4.54-3.98-9.09-7.97-13.87-11.65-2.99-2.3-6.38-4.11-9.63-6.07-3.12-1.88-6.23-3.8-9.48-5.44-3.24-1.63-6.62-3.01-9.99-4.36-4.69-1.89-9.38-3.8-14.17-5.35-1.12-.36-2.93.37-3.96,1.19-.46.37-.12,2.4.46,3.3,2.54,3.96,4.99,8.04,8.04,11.58,5.54,6.44,11.19,12.75,19.3,16.39,4.27,1.91,8.5,3.64,13.1,4.3,3.27.47,6.6.51,9.91.74ZM10.36,199.43c.83,2.31,1.96,5.56,3.17,8.79.31.84.87,1.58,1.25,2.39,1.99,4.26,3.42,8.9,6.07,12.7,3.92,5.62,8.49,10.83,13.19,15.84,2.91,3.11,6.35,5.86,9.94,8.17,3.87,2.49,8.18,4.29,12.33,6.32.72.35,1.61.46,2.43.49,1.76.07,2.65-1.17,1.95-2.77-1.83-4.24-3.7-8.46-5.6-12.67-.3-.67-.82-1.25-1.27-1.84-2.79-3.59-5.55-7.21-8.4-10.75-2.86-3.55-5.66-7.17-8.77-10.5-3.33-3.56-6.94-6.85-10.52-10.16-2.55-2.36-5.17-4.66-7.88-6.83-1.34-1.07-2.88-1.97-4.47-2.62-2.16-.88-3.36.07-3.41,3.42Zm74.09,59c-.27-2.28-.43-5.88-1.16-9.36-1.43-6.82-3.09-13.6-4.83-20.36-.8-3.1-1.83-6.19-3.13-9.12-2.38-5.37-4.99-10.63-7.61-15.89-.49-.99-1.42-1.79-2.26-2.55-1.52-1.37-3.1-1.17-3.8.71-1.25,3.39-2.4,6.85-3.14,10.38-1.05,5.06-.74,10.18-.33,15.34.76,9.55,3.24,18.28,9.82,25.52,1.73,1.9,3.31,3.97,5.2,5.7,1.93,1.78,4.11,3.29,6.25,4.82.49.35,1.24.5,1.86.48,2.27-.08,3.15-1.36,3.13-5.68Zm238.7-33.51c.49-8.07-1.52-15.29-3.39-22.51-.71-2.74-1.77-2.92-3.83-1.26-1.7,1.37-2.17,3.42-3.25,5.11-3.88,6.09-5.51,13.08-8.37,19.57-.73,1.66-1.07,3.49-1.67,5.21-3.14,9.09-4.68,18.49-5.18,28.05-.2,3.9,1.56,4.95,5.13,3.43.61-.26,1.24-.55,1.72-.99,2.66-2.47,5.56-4.76,7.84-7.55,2.71-3.31,5.62-6.79,7.09-10.71,2.25-5.99,4.79-12.12,3.9-18.36Zm-68.55,60.27c7.62-.5,15.27-.35,21.79-5.78,5.14-4.28,8.48-9.72,11.69-15.26,2.12-3.68,3.42-7.88,4.73-11.96.9-2.82,1.32-5.82,1.71-8.78.24-1.84-1.39-3.28-2.63-2.55-2.18,1.3-4.39,2.59-6.41,4.11-4.37,3.28-8.65,6.67-12.92,10.07-1.68,1.34-3.33,2.74-4.87,4.25-3.97,3.9-7.68,8.09-11.86,11.75-3.45,3.01-5.36,6.84-7.25,10.78-.92,1.93-.35,3.03,1.8,3.33,1.38.19,2.82.04,4.23.04Zm69.05-102.62c-.15.01-.31.03-.46.04.59,7.1.96,14.23,1.84,21.3.53,4.23,1.81,8.37,2.85,12.52.44,1.76.99,3.51,1.69,5.18.86,2.02,2.72,2.17,4.04.35.92-1.27,1.72-2.64,2.5-4.01,1.02-1.79,2.29-3.53,2.91-5.46,1.93-6.06,2.77-12.32,2.13-18.67-.55-5.56-.39-11.32-3.74-16.26-.27-.4-.3-.95-.49-1.41-1.11-2.67-2.07-5.41-3.39-7.97-1.09-2.12-2.53-4.09-3.99-5.99-.53-.68-1.84-1.51-2.35-1.27-.81.37-1.62,1.5-1.78,2.42-.71,4.06-1.3,8.16-1.71,12.26-.23,2.3-.04,4.65-.04,6.98Zm-265.92-4.84c-.47-3.34-1-7.7-1.76-12.01-.24-1.36-1.12-2.6-1.7-3.9-1.3.77-2.61,1.54-3.91,2.32-.13.08-.23.24-.31.39-2,3.8-4.22,7.5-5.93,11.42-3.06,7.02-3.98,14.54-4.28,22.12-.17,4.25.54,8.35,2.13,12.41,1.63,4.15,2.46,8.63,5.39,12.17.6.73,1.65,1.45,2.51,1.47.69.01,1.83-.93,2.03-1.66,1.26-4.52,2.39-9.07,3.4-13.65.36-1.6.26-3.3.39-4.96.65-8.35,1.3-16.7,2.04-26.12Zm295.57-43.75s.09,0,.14,0c0,4.16-.1,8.32.04,12.48.08,2.23.41,4.47.92,6.65.43,1.84,1.62,2.19,2.83.86,3.64-3.97,6.95-8.17,8.17-13.62.3-1.36.85-2.66,1.24-3.99.49-1.67,1.36-3.36,1.33-5.02-.15-7.78.96-15.61-.9-23.34-1.25-5.21-1.46-10.69-4-15.55-.46-.88-1.27-1.58-1.92-2.37-.65.81-1.64,1.52-1.9,2.43-1.24,4.36-2.27,8.77-3.39,13.16-.61,2.38-1.63,4.74-1.78,7.15-.45,7.04-.55,14.11-.79,21.17Zm-5.12-11.97c.32-.05.64-.1.95-.15-.94-3.06-1.84-6.13-2.83-9.17-2.17-6.6-5.34-12.61-10.81-17.1-4.98-4.09-9.79-8.45-15.83-11.02-.53-.23-1.37-.42-1.75-.16-.42.29-.77,1.19-.63,1.68.93,3.26,1.77,6.58,3.08,9.69,1.51,3.57,3.36,7.02,5.26,10.4,2.22,3.95,4.52,7.87,7.05,11.63,1.63,2.43,3.68,4.6,5.63,6.81,2.08,2.37,4.21,4.7,6.45,6.91.54.53,1.69.82,2.43.65.47-.11.93-1.28.96-1.99.11-2.73.04-5.46.04-8.19Zm3.25,45.78c-.92-5.39-1.13-10.06-2.58-14.31-1.75-5.13-4.41-9.97-6.94-14.79-1.33-2.54-3.07-4.89-4.89-7.12-1.56-1.91-3.47-3.55-5.28-5.24-.6-.56-1.6-1.42-2.07-1.24-.68.26-1.14,1.3-1.51,2.09-.23.49-.18,1.14-.15,1.72.23,5.65.98,11.19,2.88,16.57,1.89,5.35,3.43,10.82,5.45,16.12,1.44,3.77,3.32,7.4,5.23,10.97,1.19,2.24,2.72,4.31,4.24,6.35.91,1.21,2,.88,2.43-.47,1.21-3.76,2.27-7.56,3.19-10.65Zm-321.06-3.36c.16,2.67.11,5.19.52,7.63.44,2.58,1.27,5.11,2.05,7.62.42,1.33,1.29,1.75,2.34.48.95-1.15,2.08-2.23,2.73-3.53,2.35-4.72,4.56-9.52,6.76-14.32.68-1.5,1.18-3.09,1.68-4.66,1.56-4.86,3.1-9.73,4.6-14.61.36-1.18.66-2.41.81-3.63.45-3.78.94-7.56,1.14-11.36.1-1.89-1.38-2.93-2.39-1.93-3.17,3.13-6.55,6.16-9.09,9.77-2.73,3.87-4.46,8.42-6.88,12.52-2.98,5.04-3.84,10.54-4.28,16.03Zm2.46-37.58c0,1.58-.12,3.17.03,4.73.18,1.83,1.44,2.36,2.7,1.04,3.61-3.78,7.56-7.35,10.47-11.63,3.76-5.52,8.39-10.54,10.8-16.94.08-.22.33-.38.44-.6,2.09-4.31,4.2-8.6,6.23-12.94.3-.65.32-1.46.34-2.2.07-2.64-1.53-3.81-3.83-2.5-3.01,1.71-6.07,3.49-8.65,5.76-4.75,4.17-9.03,8.83-12.11,14.44-3.57,6.5-6.85,13.1-6.41,20.84Zm-3.67-32.03c.28,2.63.44,5.28.9,7.88.21,1.16.89,2.61,2.57,1.84,1.26-.58,2.54-1.34,3.49-2.33,6.69-6.97,10.51-15.63,13.88-24.46,1.71-4.47,2.68-9.21,3.96-13.84.39-1.43.82-2.87,1-4.33.08-.63-.29-1.8-.67-1.9-.63-.17-1.63.12-2.15.58-2.21,1.98-4.35,4.05-6.44,6.16-5.97,6.03-11.34,12.36-14.4,20.58-1.23,3.3-1.98,6.39-2.14,9.82Zm322.95-.86c-.39-2.15-.45-5.28-1.57-7.97-1.93-4.64-4.49-9.02-6.86-13.48-.66-1.23-1.41-2.47-2.37-3.48-3.42-3.61-6.91-7.16-10.48-10.62-.6-.58-2.1-1.06-2.57-.73-.66.47-1.04,1.75-1.03,2.67.02,1.48.39,2.96.73,4.42,1.11,4.68,1.93,9.46,3.52,13.97,1.27,3.62,3.47,6.92,5.3,10.34,2.84,5.31,6.5,9.98,10.99,13.99,1.96,1.76,3.09,1.47,3.57-1.11.44-2.35.48-4.78.77-7.99Z"/><path class="cls-1" d="m192.37,275.76c-8.29-.84-17.34-1.4-26.26-2.79-6.33-.99-12.53-2.96-18.71-4.77-2.17-.63-4.12-2.05-6.14-3.16-6.09-3.34-12.39-6.18-18.39-9.8-9.07-5.48-16.64-12.57-24.17-19.7-4.7-4.45-8.5-9.93-12.29-15.25-3.53-4.96-6.5-10.31-9.69-15.51-.25-.4-.26-.95-.44-1.4-.96-2.46-1.99-4.9-2.9-7.38-.94-2.55-1.89-5.09-2.63-7.7-1.76-6.22-3.02-12.55-4.26-18.9-1.51-7.69-1.86-15.32-1.67-23.03.22-8.88,1.23-17.7,3.39-26.35,1.37-5.46,2.6-10.96,4.36-16.29,1.24-3.74,3.17-7.27,4.96-10.82,4.3-8.52,9.52-16.44,15.86-23.61,2.26-2.55,4.47-5.13,6.72-7.69,5.42-6.16,12.19-10.73,18.57-15.75,5.7-4.48,11.93-7.95,18.65-10.62,2.3-.91,4.44-2.26,6.77-3.06,4.3-1.48,8.67-2.74,13.04-4,3.8-1.1,7.59-2.39,11.47-3.03,5.31-.88,10.71-1.72,16.07-1.7,9.88.02,19.77.44,29.62,1.19,4.04.31,8.02,1.79,11.94,2.99,4.59,1.41,9.18,2.89,13.61,4.74,4.34,1.81,8.53,4.02,12.68,6.24,2.9,1.55,5.68,3.33,8.42,5.15,10.23,6.82,18.92,15.41,27.16,24.42,3.36,3.67,5.82,8.17,8.68,12.31,1.6,2.31,3.26,4.58,4.74,6.97.95,1.53,1.6,3.25,2.45,4.84,3.24,6.07,5.85,12.41,7.73,19.02,1.63,5.73,3.02,11.53,4.5,17.3.18.72.37,1.46.39,2.2.19,10.39.44,20.78.46,31.17,0,2.79-.55,5.62-1.18,8.36-1.42,6.21-2.97,12.41-4.65,18.56-.56,2.04-2.06,3.84-2.48,5.89-1.95,9.63-7.41,17.38-12.96,25.11-1.3,1.82-2.52,3.7-3.69,5.6-2.91,4.71-6.95,8.36-10.94,12.09-4.24,3.96-8.28,8.14-12.65,11.95-2.28,1.99-5.05,3.42-7.61,5.09-1.31.86-2.67,1.66-3.97,2.54-3.43,2.32-6.91,4.45-10.94,5.7-2.49.77-4.69,2.39-7.1,3.46-1.56.69-3.3.98-4.89,1.61-7.21,2.83-14.68,4.77-22.29,5.95-6.13.95-12.37,1.23-19.38,1.88Zm-21.66-190.31c-3.91,0-7.82-.04-11.73.02-1.64.02-3.08-.72-3.27-2.14-.35-2.58-.99-5.63.02-7.77,2.26-4.81,5.36-9.24,8.29-13.71,1.65-2.52,1.71-4.67-.67-6.44-2.05-1.53-4.29-2.83-6.56-4.02-.67-.35-1.89-.26-2.56.14-2.64,1.58-5.38,3.12-7.67,5.14-4.6,4.04-8.99,8.33-13.35,12.63-2.45,2.42-4.33,5.65-8.19,5.96-1.26.1-2.58-.65-3.88-1.02.4-1.35.4-3.06,1.25-4,3.26-3.63,6.6-7.23,10.26-10.46,4.08-3.6,8.54-6.79,12.82-10.16,1.17-.93,2.37-1.83,3.47-2.85,1.4-1.3,1.31-2.82.24-4.26-1.51-2.04-4.03-2.93-6.41-1.92-2.95,1.25-5.76,2.87-8.62,4.33-5.31,2.71-10.72,5.26-15.25,9.26-3.24,2.85-6.63,5.54-9.77,8.49-2.83,2.66-5.42,5.59-8.12,8.39-6.1,6.35-11.25,13.34-14.92,21.4-1.15,2.53-3.05,4.73-4.09,7.29-2.15,5.27-4.25,10.59-5.81,16.05-1.46,5.08-2.48,10.33-3.19,15.58-.99,7.39-1.7,14.84-2.17,22.28-.28,4.45.08,8.95.24,13.42.05,1.46,1.14,1.79,2.02.88,1.35-1.38,2.82-2.91,3.48-4.66,1.61-4.24,2.64-8.69,4.18-12.96,2.29-6.31,4.95-12.49,7.23-18.8,2.28-6.3,4.18-12.75,6.49-19.03,1.07-2.9,2.18-5.89,5.38-7.49,2.04-1.03,2.09-3.21,1.76-5.3-.24-1.53-.52-3.07-.63-4.61-.2-2.73-.24-5.47-.43-8.2-.22-3.08,1.4-5.06,4.42-5.4,1.4-.16,2.77-.54,4.17-.77,2.85-.46,5.7-.98,8.57-1.31,3.79-.43,7.63-.53,11.4-1.08,4.92-.72,9.79-1.75,14.69-2.62,2.93-.52,5.89,1.24,6.71,4.17.75,2.68,1.48,5.4,1.84,8.14.39,2.95.2,5.98.56,8.94.16,1.26.81,3.11,1.72,3.47,1.12.44,2.75-.34,4.13-.7,1.01-.26,1.95-.89,2.96-.99,1.65-.16,3.33.01,4.99-.04,2.01-.06,3.6.42,4.28,2.58.66,2.09.17,4.22-1.7,5.55-2.56,1.83-5.2,3.56-7.9,5.18-2.9,1.75-3.22,3.43-.92,5.95,2.4,2.64,2.45,4.96.16,7.63-2.19,2.55-2.12,3.13.68,4.99,2.73,1.82,3.08,3.33,1.46,6.24-.36.65-.72,1.31-1.13,1.94-.75,1.17-.42,1.95.71,2.67,4.34,2.78,4.23,7.83-.3,10.27-1.62.87-2.62,1.91-2.87,3.74-.16,1.15-.34,2.36-.86,3.37-.49.94-1.32,2.16-2.21,2.37-3.78.9-7.61,1.59-11.46,2.15-5,.72-10.06,1.1-15.05,1.89-2.51.4-4.95,1.31-7.37,2.12-1.94.65-3.89,1.36-5.7,2.3-2.92,1.51-5.78,3.14-8.57,4.89-1.58.99-3.31,2.06-4.36,3.53-4.5,6.29-7.39,13.48-9.11,20.87-1.35,5.82-1.05,12.04-1.38,18.08-.05.86.23,1.9.72,2.59,2.12,2.94,4.15,6.02,6.65,8.62,5.36,5.54,11.2,10.63,16.46,16.26,3.91,4.18,9.11,5.34,13.87,4.74,6.15-.78,12.91.58,18.45-3.58.12-.09.32-.07.48-.13,3.88-1.44,7.76-2.9,11.65-4.33,2.79-1.02,5.67-1.83,8.38-3.02,5.36-2.36,11-3.42,16.77-4.02,1.98-.21,3.98-.43,5.9-.9,4.09-1,6.57-4.57,6.14-8.75-.24-2.31-.65-4.6-1.07-6.89-.34-1.86-.99-3.67-1.18-5.54-.35-3.3-.07-6.71-.78-9.92-.72-3.26-2.3-6.34-3.53-9.48-.08-.22-.32-.38-.5-.55-4.22-3.88-8.37-7.83-12.67-11.62-5.24-4.61-6.21-10.54-2.7-16.52.84-1.43,1.49-3.17,1.55-4.79.07-1.99.76-3.41,2.31-4.39,1.95-1.24,2.7-2.93,2.88-5.19.14-1.63-.03-3.65,2.02-4.5,2.33-.96,2.49-2.79,2.2-4.95-.26-1.97-.29-3.97-.41-5.95-.13-2.26,1.14-3.42,3.19-3.74,1.55-.24,3.17-.06,4.72-.31,3.25-.52,6.56-.93,9.69-1.88,5.13-1.55,8.41-5.74,12.11-9.28,5.36-5.13,10.45-10.39,17.92-12.92,5.13-1.73,10.23-2.83,15.53-3.18,9.71-.64,18.17,2.98,25.83,8.49,4.23,3.04,8.02,6.69,12.06,9.99,5.44,4.44,9.08,10.21,12.18,16.37,3.04,6.04,4.13,12.65,4.65,19.26.69,8.75-.1,17.4-3.84,25.55-2,4.35-3.39,9-7.26,12.31-3.65,3.11-6.87,6.73-10.62,9.71-4.09,3.25-8.05,6.71-13.43,8.14-5.15,1.37-10.17,2.88-15.6,2.66-3.59-.14-5.71,2.32-5.52,5.9.06,1.14.34,2.31.7,3.4.61,1.87,1.35,3.7,2.06,5.53.3.77.63,1.54.99,2.28,2.15,4.34,6.2,6.88,9.65,9.95,1.3,1.16,3.18,1.04,4.63-.13,2.46-1.97,5.12-3.81,7.18-6.15,4.8-5.47,10.29-10.34,14.39-16.43,1.76-2.61,3.99-4.94,5.47-7.69,2.67-4.95,4.89-10.13,7.36-15.19,4.65-9.49,7.28-19.59,8.59-30,1.44-11.36.49-22.75-.61-34.08-.83-8.6-2.67-17.05-6.03-25.08-1.05-2.52-2.01-5.08-3.15-7.56-1.83-3.98-3.62-8-5.73-11.83-1.9-3.45-4.91-3.79-8.18-1.58-3.35,2.26-6.79,4.4-10.29,6.41-3.1,1.78-4.07,3.26-3.66,6.06.15,1.06-.1,2.19-.17,3.29-1.12-.16-2.25-.25-3.34-.51-.53-.13-1.12-.48-1.46-.9-1.51-1.85-3.31-2.76-5.79-2.82-.97-.02-2.48-1.12-2.68-1.97-.18-.77.88-2.25,1.77-2.77,2.01-1.18,2.32-2.71,1.59-4.64-.38-1-.94-1.93-1.49-2.85-.72-1.2-1.48-2.39-2.28-3.54-2.5-3.61-4.92-7.29-7.6-10.77-1.63-2.11-4.88-2.35-6.97-.78-3.77,2.82-8.39,3.71-12.6,5.51-2.4,1.03-3.81,2.52-3.22,5.05.47,2.01,1.25,3.96,1.8,5.95.95,3.43,1.87,6.87,2.71,10.33.38,1.54-.12,2.89-1.74,3.41-1.59.51-2.53-.58-3.12-1.84-.77-1.66-1.38-3.39-2.04-5.09-1.01-2.62-2.4-5.17-2.93-7.89-.91-4.7-1.53-5.36-6.18-4.64-6.7,1.04-13.2,3.39-20.15,2.79-1.8-.16-2.95,1.23-2.97,3.04-.05,5.49-.08,10.98.09,16.47.07,2.34,1.32,3.19,3.66,3.08,2.9-.13,5.86.02,8.7-.46,3.86-.65,8.04.64,11.63-1.81.33-.22,1.28-.07,1.52.24.33.43.57,1.36.33,1.74-1.83,2.89-4.48,5.21-7.67,5.9-4.25.92-8.72.96-13.1,1.17-4.61.22-5.45,1-5.78,5.54-.07.99-.67,2.33-1.45,2.81-2.06,1.27-3.83-.08-4.06-2.84-.3-3.74-1.5-4.9-5.31-5.02-2.16-.07-4.33,0-6.49-.07-.91-.02-1.86-.06-2.69-.37-.59-.22-1.33-.86-1.42-1.42-.1-.58.33-1.63.82-1.87,2.74-1.35,5.14-3.8,8.65-2.95.47.11,1,.03,1.49-.01,2.94-.26,4.7-1.66,4.85-4.62.23-4.3.07-8.61.03-12.92-.04-3.32-1.44-4.7-4.72-4.72-3.74-.02-7.49,0-11.23,0Zm-20.75,16.13c.92-7.4-.74-12.86-1.96-18.36-.38-1.7-.92-3.54-3.33-3.28-4.61.49-9.25.88-13.83,1.55-6.95,1.02-13.88,2.27-20.81,3.4-4.01.65-5.02,2.04-5.22,6.12-.35,7.05.79,13.92,2.12,20.77,1.44,7.43.3,15.14,2.57,22.48.41,1.32.28,2.8.49,4.19,1.11,7.46,2.17,14.94,3.47,22.37.18,1.04,1.47,2.49,2.45,2.68,3.03.58,6.19,1.56,9.2-.4.57-.37,1.44-.29,2.18-.37,4.03-.45,8.07-.82,12.08-1.36,3.44-.46,6.83-1.33,10.28-1.63,4.54-.39,5.87-2.64,4.22-6.91-.73-1.9-1.04-4.26-.65-6.23.51-2.61.27-4.67-1.41-6.71-1.58-1.92-1.64-4.4-.17-6.39,1.12-1.52,1.14-2.95.08-4.35-2.56-3.38-1.88-6.96-.46-10.38.95-2.3,1.04-4.43.56-6.78-.8-3.95-1.42-7.94-1.85-10.38Zm118.37-42.49c-1.11.43-1.86.6-2.46.98-2.78,1.77-5.5,3.63-8.28,5.4-2.26,1.44-2.87,2.82-1.59,5.19.84,1.55,2.42,2.68,3.35,4.2,2.45,4,4.76,8.1,7.06,12.19,1.75,3.11,3.85,3.63,6.74,1.55,1.01-.73,1.97-1.51,3.02-2.17,3.15-1.98,6.34-3.9,9.5-5.86,1.46-.91,1.71-2.35,1-3.7-.83-1.6-1.85-3.2-3.11-4.48-3.52-3.6-7.15-7.11-10.87-10.5-1.3-1.18-2.99-1.93-4.38-2.79Zm-74.89,10.16s-.02,0-.03,0c0,2.24.08,4.49-.02,6.72-.09,1.99.66,2.94,2.72,2.89,3.48-.09,7,.17,10.45-.2,3.18-.33,6.38-1.05,9.43-2.05,2.83-.92,3.19-2.82,1.51-5.26-.47-.68-1.14-1.36-1.25-2.11-.55-3.7-3.01-6.4-4.9-9.35-1.89-2.94-3.89-3.41-7.3-2.48-2.47.67-4.98,1.24-7.51,1.64-2.1.33-3.09,1.4-3.09,3.47,0,2.24,0,4.48,0,6.72Zm-17.48,10.39s0,.08.01.12c2.49,0,4.99.08,7.47-.02,2.3-.09,3.47-1.29,3.45-3.42-.04-3.73-.21-7.46-.25-11.19-.02-2.19-1.24-3.48-3.13-3.97-3.2-.83-6.47-1.4-9.72-2.04-1.43-.28-2.5.16-3.36,1.49-3.39,5.2-6.86,10.35-10.34,15.48-.86,1.27-.64,2.39.65,2.84,1.86.64,3.85,1.17,5.8,1.21,3.14.07,6.28-.31,9.43-.49Zm40.35-23.72c.66,1.55,1.09,2.7,1.63,3.79,1.53,3.09,3.12,6.15,4.67,9.22.66,1.3,1.15,2.69,1.97,3.88,1.31,1.91,2.83.24,4.24.02,1.55-.23,3.22-.24,4.6-.87,2.82-1.31,5.48-2.96,8.21-4.48,2.31-1.28,2.34-1.79.88-4-3.63-5.47-9.26-8.67-14.23-12.61-.85-.68-2.59-.85-3.67-.49-2.1.69-4.1,1.8-6,2.97-.93.58-1.54,1.69-2.31,2.57Zm34.79,6.07c.68-.13,1.16-.08,1.48-.29,2.95-1.98,5.95-3.89,8.75-6.05,1.3-1,.92-2.54-.31-3.42-3.2-2.3-6.39-4.63-9.8-6.6-3.56-2.05-7.42-3.57-11.03-5.54-3.21-1.75-5.27-1.3-7.77,2.14-1.33,1.83-.69,3.62,1.94,5.86,2.64,2.26,5.2,4.61,7.81,6.9,2.3,2.02,4.61,4.03,6.97,5.98.6.5,1.42.74,1.96,1.01Zm-52.71-9.01c1.15-.15,2.32-.23,3.44-.48,2.26-.51,2.95-1.79,1.91-3.82-1.85-3.6-3.37-7.47-6.8-9.98-.73-.54-1.64-.84-2.46-1.26-.38.95-1.06,1.9-1.07,2.85-.03,2.65.29,5.3.36,7.95.1,4.06.6,4.61,4.62,4.74Zm-10.84-7.79s0,0,.01,0c0-1.9.07-3.81-.04-5.71-.03-.56-.47-1.37-.92-1.54-.43-.16-1.34.21-1.65.63-2.32,3.21-4.64,6.42-6.74,9.78-.49.78-.59,2.58-.07,3.09,2.03,2.02,4.8,2.04,7.42,1.62.75-.12,1.38-1.36,1.92-2.19.23-.36.07-.97.07-1.47,0-1.41,0-2.81,0-4.22Zm26.21,3.54c1.39-.67,2.39-.94,3.11-1.55.81-.69,1.99-1.77,1.88-2.53-.13-1-1.26-1.97-2.13-2.75-.91-.81-2.01-1.4-3.05-2.05-2.09-1.31-4.15-2.69-6.34-3.83-.66-.35-1.68,0-2.54.02.11.77.02,1.65.38,2.27,1.29,2.21,2.56,4.48,4.16,6.45,1.25,1.53,3,2.66,4.52,3.97Zm-56.78-9.4c1.19-.6,1.98-.99,2.76-1.39,1.1-.56,2.21-1.1,3.29-1.68,2.18-1.18,4.36-2.36,6.5-3.6.35-.2.74-.85.65-1.14-.1-.35-.73-.76-1.11-.75-.8.03-1.6.3-2.39.52-2.06.59-4.09,1.32-6.17,1.79-1.61.36-3.3.36-4.94.62-1.74.27-2.64,1.74-1.7,3.01.78,1.04,2.02,1.74,3.1,2.63Zm12.73,8.69c.65-.55,1.81-1.28,2.64-2.28,1.31-1.57,2.44-3.3,3.55-5.01.41-.62.57-1.41.84-2.12-.85-.09-1.79-.46-2.53-.22-1.31.44-2.51,1.22-3.73,1.91-.99.57-1.9,1.28-2.9,1.81-1.4.74-2.67,1.59-2.23,3.39.44,1.82,1.99,2.25,4.35,2.51Zm48.95-15.3l-.04.23c-.66,0-1.35-.09-1.99.03-.43.08-1.09.42-1.14.73-.08.48.12,1.3.47,1.5,2.81,1.59,5.6,3.27,8.57,4.5,1.53.63,2.64-.74,3.03-2.23.38-1.44.01-2.72-1.62-3.13-2.41-.6-4.85-1.1-7.27-1.64Z"/><path class="cls-1" d="m126.33,287.36c-1.96.8-5.22-.74-8.73-1.27-1.83-.28-3.6-.98-5.37-1.57-.7-.23-1.3-.78-2-1-8.52-2.62-13.11-9.39-17.51-16.41-3.24-5.18-4.22-11.09-5.58-16.89-.28-1.2-1.16-2.29-1.29-3.48-.15-1.37-.09-2.98.55-4.12.25-.44,2.52-.19,3.54.36,3.12,1.68,6.08,3.65,9.1,5.51.14.09.26.2.39.32,6.15,5.52,12.29,11.04,18.44,16.54,1.17,1.05,2.57,1.89,3.59,3.06,2.27,2.61,4.37,5.37,6.53,8.08.77.97,1.38,2.13,2.32,2.9,2.19,1.79,2.17,5.26.81,5.85"/><path class="cls-1" d="m134.7,289.77c.5-.02,1.32.18,1.98.22,8.45.56,16.97.63,25.33,1.84,4.99.72,10.25.93,14.95,3.41,1.49.79,3.37.86,5.07,1.26,1.21.28,2.56.31,3.62.88,3.98,2.13,7.65,1.27,11.71-.11,9.12-3.08,18.47-5.11,28.16-5.89,8.45-.67,16.86-1.79,25.36-1.32,8.94.5,17.93.55,26.72,2.62,4.68,1.1,9.4,2.05,14.12,2.99,1.46.29,2.98.23,4.45.44,1.06.15,2.17.32,3.11.78,1.4.68,1.38,1.7.11,2.64-2.17,1.62-4.18,3.47-7.23,3.3-.91-.05-1.85.65-2.78,1.01-1.39.54-2.74,1.29-4.18,1.58-10.47,2.12-20.86,5.04-31.73,3.65-2,0-3.99-.04-5.99,0-5.01.13-9.68-.57-14.53-2.5-4.17-1.66-7.37-4.23-10.7-6.81-1.65-1.28-3.3-2.15-5.22-1.65-4.63,1.22-9.26,2.51-13.76,4.15-2.43.89-2.31,1.88-.07,3.35,4.28,2.81,8.77,5.37,12.79,8.51,4.31,3.37,8.24,7.22,12.21,11,2.77,2.63,5.32,5.48,7.96,8.24,1.4,1.46,1.53,4.94.26,6.19-1.62,1.59-5.32,1.82-6.83.33-4.72-4.68-9.35-9.44-14.12-14.06-2.14-2.07-4.53-3.89-6.81-5.82-.63-.53-1.43-.92-1.94-1.55-3.34-4.13-8.17-6.2-12.38-9.13-2.33-1.63-4.51-1.06-6.76.22-7.55,4.29-14.36,9.57-20.44,15.74-4.25,4.31-8.25,8.87-12.56,13.11-1.36,1.34-3.33,2.09-5.1,2.96-.32.16-1.07-.3-1.48-.64-2.74-2.3-3.01-4.56-1.03-7.6,3.72-5.73,9-9.92,14.14-14.22,3.36-2.81,6.8-5.52,10.32-8.12,2.65-1.95,5.52-3.62,8.23-5.5.53-.37,1.04-1.13,1.07-1.73.02-.41-.75-1.04-1.29-1.26-3.57-1.44-7.14-2.86-10.77-4.14-3.21-1.13-6.16-.72-8.73,1.79-3.06,2.99-6.7,4.83-10.76,6.39-6.66,2.56-13.3,3.09-20.27,2.47-4.3-.38-8.68.21-12.97-.24-7.41-.77-14.8-1.9-21.83-4.59-2.23-.86-4.52-1.56-6.78-2.35-.47-.16-1.04-.28-1.34-.62-.75-.82-1.38-1.75-2.05-2.64.84-.6,1.59-1.51,2.52-1.74,5.54-1.41,11.17-2.5,16.68-4.04,4.79-1.34,9.63-1.46,14.53-1.55,3.47-.07,6.92-.91,10.4-1.02"/><path class="cls-1" d="m377.53,149.75c-.7,5.25-.89,10.63-2.22,15.71-1.62,6.2-2.65,12.67-6.06,18.31-.64,1.05-.88,2.34-1.48,3.43-.66,1.19-1.48,2.29-2.29,3.38-1.32,1.78-2.72,3.51-4.01,5.32-.22.3-.2,1.07.03,1.31.25.25.98.32,1.32.14,1.01-.55,1.92-1.31,2.9-1.92,2.14-1.33,4.35-.4,4.13,2.08-.27,3.08-1.27,6.1-2.02,9.13-.38,1.52-1.06,2.97-1.33,4.51-.55,3.06-2.03,5.59-3.99,7.91-.48.57-1.11,1.08-1.4,1.74-4.01,9.33-11.11,16.24-18.42,22.84-3.72,3.36-8.15,6.06-12.59,8.43-2.53,1.35-5.72,1.49-8.64,2.07-1.32.26-2.15-.43-1.94-1.83.24-1.62.24-3.47,1.05-4.78,2.6-4.22,5.49-8.27,8.35-12.33,2.86-4.05,5.8-8.04,8.75-12.03.69-.93,1.62-1.68,2.34-2.58,1.17-1.46,2.23-3.01,3.41-4.47.62-.77,1.4-1.39,2.08-2.12,2.72-2.9,5.54-5.72,8.1-8.75,1.18-1.4.75-1.95-1.14-1.99-4.72-.11-4.84-.36-4.63-5.17.27-6.01,2.66-11.41,4.66-16.92,1.16-3.18,2.53-6.29,3.8-9.43.09-.23.19-.47.22-.72.83-7.12,4.8-12.96,7.99-19.07,1.94-3.71,4.64-7.02,7.03-10.49.37-.54.89-1,1.42-1.4,1.89-1.45,3.71-.75,3.86,1.62.17,2.65.04,5.32.04,7.98.23.03.45.05.68.08Z"/><path class="cls-1" d="m6.01,150.22c-.22-12-.34-15.61,9.26-5.7-3.68-8.96-4.84-71.37,8.81-43.53,1.05,9.63,11.09,61.51-3.83,51.5-1.89,3.95,3.67,9.31,4.56,13.62,30.89,69.47-23.94,20.09-18.81-15.88Z"/><path class="cls-1" d="m293.08,289.18c-2.16,0-4.33-.1-6.48.03-1.71.11-2.84-.79-3.3-2.1-.26-.75.26-2.17.91-2.77,3.33-3.07,6.62-6.24,10.3-8.85,4.92-3.48,10.07-6.68,15.32-9.64,6.12-3.45,12.37-6.71,18.73-9.69,4.17-1.95,8.65-3.27,13-4.84.7-.25,1.45-.4,2.19-.47,2.17-.2,3.15.92,2.09,2.82-2.37,4.25-4.53,8.77-7.69,12.38-4.85,5.52-10.28,10.6-15.87,15.39-2.27,1.95-5.6,2.68-8.46,3.95-1.81.8-3.58,1.82-5.48,2.26-3.05.71-6.17,1.14-9.29,1.48-1.97.21-3.99.04-5.98.04Z"/><path class="cls-1" d="m87.71,290.4c-3.3-.23-6.64-.27-9.91-.74-4.59-.66-8.83-2.39-13.1-4.3-8.11-3.63-13.76-9.95-19.3-16.39-3.05-3.55-5.5-7.63-8.04-11.58-.57-.9-.92-2.93-.46-3.3,1.03-.82,2.83-1.55,3.96-1.19,4.8,1.55,9.49,3.47,14.17,5.35,3.37,1.36,6.75,2.73,9.99,4.36,3.25,1.64,6.36,3.56,9.48,5.44,3.25,1.96,6.63,3.76,9.63,6.07,4.78,3.68,9.33,7.67,13.87,11.65.58.51.97,2.04.63,2.6-.51.84-1.72,1.66-2.69,1.75-2.72.23-5.48.08-8.22.08,0,.06,0,.13-.01.19Z"/><path class="cls-1" d="m10.36,199.43c.05-3.35,1.25-4.3,3.41-3.42,1.59.65,3.13,1.55,4.47,2.62,2.71,2.17,5.34,4.46,7.88,6.83,3.57,3.32,7.19,6.61,10.52,10.16,3.11,3.32,5.91,6.94,8.77,10.5,2.85,3.54,5.61,7.16,8.4,10.75.46.59.97,1.17,1.27,1.84,1.9,4.21,3.77,8.43,5.6,12.67.69,1.6-.19,2.84-1.95,2.77-.82-.03-1.71-.14-2.43-.49-4.15-2.03-8.46-3.84-12.33-6.32-3.59-2.31-7.03-5.06-9.94-8.17-4.69-5.01-9.27-10.22-13.19-15.84-2.65-3.8-4.08-8.44-6.07-12.7-.38-.81-.94-1.56-1.25-2.39-1.2-3.23-2.34-6.48-3.17-8.79Z"/><path class="cls-1" d="m84.45,258.43c.02,4.32-.86,5.6-3.13,5.68-.62.02-1.37-.12-1.86-.48-2.14-1.54-4.32-3.04-6.25-4.82-1.88-1.74-3.47-3.8-5.2-5.7-6.58-7.24-9.06-15.97-9.82-25.52-.41-5.17-.72-10.28.33-15.34.73-3.53,1.89-6.99,3.14-10.38.69-1.88,2.28-2.07,3.8-.71.84.76,1.77,1.57,2.26,2.55,2.62,5.25,5.23,10.52,7.61,15.89,1.3,2.93,2.32,6.02,3.13,9.12,1.75,6.75,3.4,13.53,4.83,20.36.73,3.48.89,7.07,1.16,9.36Z"/><path class="cls-1" d="m323.15,224.92c.89,6.24-1.66,12.37-3.9,18.36-1.47,3.92-4.38,7.39-7.09,10.71-2.28,2.79-5.18,5.08-7.84,7.55-.47.44-1.11.73-1.72.99-3.58,1.52-5.34.47-5.13-3.43.5-9.56,2.04-18.96,5.18-28.05.6-1.73.94-3.55,1.67-5.21,2.86-6.49,4.49-13.49,8.37-19.57,1.08-1.69,1.54-3.74,3.25-5.11,2.06-1.66,3.12-1.49,3.83,1.26,1.87,7.22,3.88,14.44,3.39,22.51Z"/><path class="cls-1" d="m254.59,285.19c-1.41,0-2.84.16-4.23-.04-2.14-.3-2.72-1.4-1.8-3.33,1.89-3.94,3.8-7.77,7.25-10.78,4.18-3.65,7.89-7.85,11.86-11.75,1.53-1.51,3.18-2.91,4.87-4.25,4.27-3.4,8.55-6.8,12.92-10.07,2.03-1.52,4.23-2.81,6.41-4.11,1.24-.73,2.87.7,2.63,2.55-.39,2.95-.81,5.95-1.71,8.78-1.31,4.08-2.61,8.28-4.73,11.96-3.2,5.54-6.55,10.98-11.69,15.26-6.52,5.44-14.17,5.28-21.79,5.78Z"/><path class="cls-1" d="m323.65,182.58c0-2.33-.19-4.67.04-6.98.41-4.1,1-8.2,1.71-12.26.16-.92.97-2.05,1.78-2.42.51-.23,1.83.59,2.35,1.27,1.47,1.9,2.9,3.87,3.99,5.99,1.32,2.56,2.29,5.3,3.39,7.97.19.46.22,1.01.49,1.41,3.35,4.94,3.19,10.7,3.74,16.26.63,6.35-.2,12.61-2.13,18.67-.62,1.93-1.88,3.67-2.91,5.46-.78,1.37-1.58,2.74-2.5,4.01-1.33,1.82-3.18,1.68-4.04-.35-.71-1.67-1.26-3.42-1.69-5.18-1.03-4.16-2.32-8.3-2.85-12.52-.88-7.07-1.25-14.19-1.84-21.3.15-.01.31-.03.46-.04Z"/><path class="cls-1" d="m57.73,177.74c-.74,9.42-1.39,17.77-2.04,26.12-.13,1.66-.03,3.36-.39,4.96-1.01,4.58-2.14,9.14-3.4,13.65-.2.73-1.34,1.67-2.03,1.66-.86-.01-1.91-.74-2.51-1.47-2.93-3.54-3.77-8.02-5.39-12.17-1.59-4.06-2.3-8.16-2.13-12.41.3-7.58,1.22-15.1,4.28-22.12,1.71-3.92,3.93-7.62,5.93-11.42.08-.14.18-.31.31-.39,1.3-.78,2.61-1.55,3.91-2.32.58,1.3,1.46,2.54,1.7,3.9.76,4.31,1.29,8.67,1.76,12.01Z"/><path class="cls-1" d="m353.3,133.99c.24-7.06.35-14.12.79-21.17.15-2.41,1.18-4.77,1.78-7.15,1.12-4.39,2.15-8.8,3.39-13.16.26-.92,1.24-1.63,1.9-2.43.65.78,1.46,1.48,1.92,2.37,2.54,4.86,2.75,10.34,4,15.55,1.85,7.74.74,15.56.9,23.34.03,1.67-.84,3.36-1.33,5.02-.39,1.34-.94,2.64-1.24,3.99-1.22,5.45-4.53,9.65-8.17,13.62-1.22,1.33-2.41.98-2.83-.86-.51-2.17-.84-4.42-.92-6.65-.14-4.15-.04-8.32-.04-12.48-.05,0-.09,0-.14,0Z"/><path class="cls-1" d="m348.17,122.02c0,2.73.07,5.46-.04,8.19-.03.71-.49,1.87-.96,1.99-.73.18-1.89-.11-2.43-.65-2.24-2.21-4.37-4.55-6.45-6.91-1.95-2.21-4-4.38-5.63-6.81-2.52-3.76-4.83-7.68-7.05-11.63-1.9-3.39-3.75-6.83-5.26-10.4-1.31-3.11-2.15-6.43-3.08-9.69-.14-.49.22-1.4.63-1.68.38-.26,1.21-.06,1.75.16,6.04,2.57,10.85,6.92,15.83,11.02,5.47,4.5,8.64,10.5,10.81,17.1,1,3.04,1.89,6.11,2.83,9.17-.32.05-.64.1-.95.15Z"/><path class="cls-1" d="m351.42,167.8c-.91,3.08-1.98,6.89-3.19,10.65-.43,1.34-1.52,1.68-2.43.47-1.53-2.03-3.05-4.11-4.24-6.35-1.91-3.57-3.78-7.2-5.23-10.97-2.03-5.29-3.56-10.77-5.45-16.12-1.9-5.37-2.65-10.92-2.88-16.57-.02-.58-.08-1.23.15-1.72.37-.79.83-1.83,1.51-2.09.47-.18,1.46.67,2.07,1.24,1.82,1.69,3.72,3.33,5.28,5.24,1.82,2.22,3.56,4.58,4.89,7.12,2.53,4.83,5.19,9.67,6.94,14.79,1.45,4.25,1.66,8.92,2.58,14.31Z"/><path class="cls-1" d="m30.36,164.44c.44-5.48,1.3-10.99,4.28-16.03,2.42-4.1,4.15-8.66,6.88-12.52,2.54-3.6,5.92-6.64,9.09-9.77,1.01-.99,2.49.04,2.39,1.93-.21,3.79-.7,7.58-1.14,11.36-.15,1.23-.44,2.45-.81,3.63-1.5,4.88-3.04,9.75-4.6,14.61-.5,1.57-1,3.17-1.68,4.66-2.19,4.8-4.41,9.59-6.76,14.32-.65,1.31-1.78,2.38-2.73,3.53-1.05,1.27-1.92.85-2.34-.48-.78-2.51-1.61-5.04-2.05-7.62-.42-2.44-.36-4.96-.52-7.63Z"/><path class="cls-1" d="m32.82,126.86c-.44-7.73,2.83-14.33,6.41-20.84,3.08-5.61,7.37-10.27,12.11-14.44,2.58-2.27,5.64-4.05,8.65-5.76,2.3-1.31,3.9-.14,3.83,2.5-.02.74-.03,1.55-.34,2.2-2.03,4.33-4.14,8.63-6.23,12.94-.11.22-.36.38-.44.6-2.4,6.4-7.04,11.42-10.8,16.94-2.91,4.27-6.87,7.85-10.47,11.63-1.26,1.32-2.52.79-2.7-1.04-.15-1.56-.03-3.16-.03-4.73Z"/><path class="cls-1" d="m29.15,94.83c.17-3.43.92-6.51,2.14-9.82,3.06-8.22,8.43-14.55,14.4-20.58,2.09-2.11,4.23-4.18,6.44-6.16.52-.46,1.51-.75,2.15-.58.38.1.75,1.27.67,1.9-.18,1.46-.61,2.9-1,4.33-1.28,4.63-2.25,9.37-3.96,13.84-3.37,8.83-7.19,17.49-13.88,24.46-.95.99-2.23,1.75-3.49,2.33-1.68.77-2.36-.68-2.57-1.84-.46-2.6-.62-5.25-.9-7.88Z"/><path class="cls-1" d="m352.1,93.97c-.29,3.21-.33,5.64-.77,7.99-.48,2.58-1.6,2.87-3.57,1.11-4.48-4.01-8.15-8.68-10.99-13.99-1.83-3.42-4.03-6.72-5.3-10.34-1.59-4.51-2.41-9.29-3.52-13.97-.34-1.45-.72-2.94-.73-4.42-.01-.93.36-2.21,1.03-2.67.48-.33,1.97.15,2.57.73,3.57,3.46,7.06,7.01,10.48,10.62.95,1.01,1.71,2.24,2.37,3.48,2.37,4.45,4.93,8.84,6.86,13.48,1.12,2.69,1.18,5.82,1.57,7.97Z"/><path class="cls-1" d="m135.86,157.17c-1.82.09-2.51-.86-2.48-2.58.02-1.5.37-2.63,2.17-2.65,1.7-.02,3.07,1.05,3.15,2.49.08,1.56-1.09,2.7-2.83,2.74Z"/></svg>