<?xml version="1.0" encoding="UTF-8"?><svg id="iPhone_X" xmlns="http://www.w3.org/2000/svg" viewBox="0 0 400 400"><defs><style>.cls-1{fill:#6cf;}</style></defs><path class="cls-1" d="m302.89,77.02c-.07-27.89-14.6-41.87-42.58-41.85-40.03.03-80.07.51-120.09-.16-29.97-.5-43.84,12.84-43.65,43.1.51,81.16.5,162.34-.07,243.5-.13,18.59,5.75,32.83,20.86,43.38h165c14.48-11.82,21.43-21.9,21.14-41.06-1.48-96.64-.44-178.97-.61-246.92Zm-48.73,260.77c-36.56-.95-73.18-1.09-109.73.04-17.7.55-20.52-7.41-20.42-22.54.52-77.7.44-155.4.44-233.1,0-11.13-.63-18.99,8.27-18.99,11.3,0,15.98.67,23.91,8.59,16.99,16.99,75.84,10.34,87.11-.93,7.98-7.98,15.2-7.32,24.33-7.32,7.73,0,7.18,13.83,7.18,19.77,0,39.99.23,79.98.22,119.98,0,37.71-.67,75.43.31,113.11.43,16.51-5.34,21.8-21.61,21.38Z"/></svg>