<?xml version="1.0" encoding="UTF-8"?><svg id="Communicate" xmlns="http://www.w3.org/2000/svg" viewBox="0 0 400 400"><defs><style>.cls-1{fill:#6cf;}</style></defs><path class="cls-1" d="m387.99,137.04c-38.96-8.31-67.35,10.9-95.39,41.69-1.33-16.9-2.15-27.35-3.19-40.64-14.31-.77-28.95-1.55-45.33-2.44V35h143.91v102.04Z"/><path class="cls-1" d="m254.94,150.06c17.72,35.16,7.63,64.7-14.06,94.15-22.61,30.71-14.77,50.75,20.55,61.58,24.98,7.66,49.93,15.45,75.93,23.51-.18,24.38-10.35,35.74-34.58,35.64-85.09-.37-170.17-.44-255.26.06-22.67.13-33.82-9.81-35.52-35.07,26.99-8.38,54.71-16.87,82.35-25.58,25.62-8.07,37.84-33.08,19.62-52.3-39.47-41.62-24.77-89.35-21.86-135.42,2.22-35.14,26.86-55.09,60.61-62.16,21.59-4.52,43.9-5.75,69.94-8.95,1.43,23.06,2.69,43.4,4.34,70.12-30.86,0-59.62,1.36-88.16-.58-14.11-.96-22.17-.55-27.21,14.72-17.36,52.61-1.72,103.19,42.75,136.59,14.27,10.72,28.18,13.57,40.27-.02,17.84-20.04,34.93-41.01,49.69-63.29,4.17-6.29-2.2-18.65-1.38-28.03.82-9.35-9.49-25.95,11.98-24.99Zm-114.05,128.24c-9.56,16.81-5.47,27.93,8.4,36.77,18.08,11.52,36.93,12.21,52.67-1.91,7.39-6.63,9.29-19.21,13.67-29.09-2.18-1.69-4.36-3.38-6.54-5.07-23.08,18.31-45.91,18.84-68.2-.7Z"/></svg>