<?xml version="1.0" encoding="UTF-8"?><svg id="Oak_Tree-2" xmlns="http://www.w3.org/2000/svg" viewBox="0 0 400 400"><defs><style>.cls-1{fill:#6cf;}</style></defs><path class="cls-1" d="m126.18,210.98c18.84-13.97,56.16-21.97,22.84-57.87,13.42,7.57,26.84,15.14,44.21,24.95,1.15-16.98,1.62-32.06,3.5-46.97.62-4.95,4.88-9.45,7.48-14.15,3.73,4.78,10.04,9.21,10.74,14.4,2.8,20.6,5.35,41.45,5.16,62.18-.21,23.59,6.2,28.06,26.13,14.42,8.18-5.6,19.01-7.35,28.63-10.85-5.65,8.99-9.47,20.26-17.28,26.57-27.28,22.05-41.39,47.29-32,83.64,3.55,13.73,2.75,29.27.56,43.46-.89,5.8-10.56,13.98-16.53,14.24-6.2.26-18.85-9.12-18.21-11.94,7.59-33.96-14.81-37.14-38.95-43.61-60.45-16.19-98.43-61.76-92.1-116.36,5.11-44.09,21.87-85.46,63-111.11,5.15-3.21,10.2-7.15,14.03-11.79,44.91-54.34,116.51-44.17,144.79,19.69,8.01,18.08,19.88,34.97,32.44,50.4,21.83,26.83,31.97,55.53,21.62,89.53-11.94,39.23-41.09,61.36-77.27,75.83-3.01,1.2-11.48-2.53-11.5-4.07-.1-6.38-.11-15.4,3.82-18.69,10.24-8.56,23.5-13.46,33.91-21.86,38.16-30.76,38.74-73.6,4.79-108.03-12.8-12.98-23.05-29.83-30.21-46.71-14.96-35.26-45.86-59.78-70.28-42.88-29.42,20.36-65.76,37.23-80.42,74.92-1.82,4.69-2.32,10.56-5.5,13.95-23.9,25.52-24.53,52.98-9.31,83,17.28,34.08,47.63,47.65,82.57,54.13,3.92.73,12.41-2.87,12.46-4.65.7-23.76,1.24-47.64-.93-71.24-.31-3.42-15.26-8.51-22.77-7.57-11.7,1.46-22.85,7.43-34.23,11.49-1.74-2.15-3.47-4.3-5.21-6.45Z"/></svg>