<?xml version="1.0" encoding="UTF-8"?><svg id="Instagram" xmlns="http://www.w3.org/2000/svg" viewBox="0 0 400 400"><defs><style>.cls-1{fill:#6cf;}</style></defs><path class="cls-1" d="m364.48,198.64c0-23.78.88-47.6-.18-71.33-2.25-50.26-41.34-89.83-91.78-91.25-48.6-1.37-97.3-1.46-145.89.08-50.12,1.59-89.16,41.68-90.51,92.35-1.26,47.52-1.24,95.13-.02,142.66,1.34,52.07,41.22,91.73,93.32,93.03,46.45,1.15,92.96,1.02,139.42.08,55.41-1.12,94.39-41.37,95.67-97.52.52-22.69.09-45.4.09-68.09h-.11Zm-163.3,82.45c-42.38.82-81.26-37.09-82.07-80.03-.81-42.4,37.09-81.28,80.01-82.09,42.41-.8,81.27,37.09,82.07,80.03.8,42.41-37.07,81.26-80.01,82.09Zm70.64-179.38c-11.84,0-21.44-9.6-21.44-21.44s9.6-21.44,21.44-21.44,21.44,9.6,21.44,21.44-9.6,21.44-21.44,21.44Z"/></svg>