<?xml version="1.0" encoding="UTF-8"?><svg id="Scroll_Up" xmlns="http://www.w3.org/2000/svg" viewBox="0 0 400 400"><defs><style>.cls-1{fill:#6cf;}</style></defs><path class="cls-1" d="m198.53,35c92.73-.65,168.72,73.24,169.01,164.34.3,91.23-75.11,165.71-167.71,165.66-91.17-.05-166.38-73.21-167.37-162.79-1.01-91.38,73.65-166.56,166.07-167.21Zm21.22,139.76c.16-2.49,2.98-3.93,5.06-2.55,9.74,6.48,16.73,10.76,23.02,15.88,8.16,6.63,14.52,7.11,21.43-1.69,6.29-8.02,2.89-12.98-3.59-18.38-17.99-14.98-35.72-30.25-53.56-45.39-5.91-5.01-12.17-9.65-19.76-3.32-20.44,17.02-40.69,34.26-60.97,51.46-6.37,5.4-4.53,10.76.19,16.22,4.49,5.19,8.94,8.73,16.26,4.3,8.87-5.36,15.78-13.95,28.13-17.63,2.01-.6,4.1.76,4.24,2.86,2.08,30.54,3.92,60.4,6.36,90.2.76,9.29.82,22.06,14.11,22.06,12.59,0,12-14.39,12.78-23.33,2.53-28.77,4.14-57.61,6.31-90.69Z"/></svg>