<?xml version="1.0" encoding="UTF-8"?><svg id="Parchment" xmlns="http://www.w3.org/2000/svg" viewBox="0 0 400 400"><defs><style>.cls-1{fill:#6cf;}</style></defs><path class="cls-1" d="m160.59,364.55c-32.88,0-65.75.08-98.63-.03-19.83-.07-25.5-1.89-29.78-20.63-5.4-23.63-7.27-48.19,3.33-71.78,3.96-8.81,8.99-13.13,19.3-13.07,64.65.4,129.31.15,193.97.25,8.84.01,14.54,10.03,9.73,17.12-2.42,3.56-6.24,6.14-9.15,9.4-14.55,16.3-13.4,38.71,1.37,53.99,6,6.21,7.87,1.94,11.93-1.32,11.61-9.34,10.84-24.09,16.27-36.08,1.65-3.64.41-8.66.23-13.03-.57-13.98-1.26-27.96-1.91-41.94-14.06-.45-28.12-1.2-42.18-1.29-30.68-.2-61.37-.06-92.05-.06-5.48,0-11.13.86-16.4-.18-10-1.97-21.83-2.59-28.94-8.52-4.57-3.81-2.55-16.09-2.68-24.58-.29-19.72-.15-39.45-.06-59.18.03-6.13-2.27-14.08,8.8-13.11.29.03.92-3.88,1.39-5.96-18.02-1.31-8.64-11.58-7.26-20.18.79-4.91-2.39-10.33-2.84-15.6-.56-6.53.98-13.38-.36-19.67-3.16-14.84,7.8-21.41,15.96-29.67,7.46-7.55,13.85-14.64,27.08-14.42,63.54,1.04,127.11.39,190.67.68,3.35.02,6.69,3.15,10.03,4.84-2.32,2.7-4.15,6.22-7.04,7.98-20.22,12.31-21.48,34.11-25.29,53.55-2.9,14.77-.99,30.59-.44,45.91.41,11.57,1.45,22.54-15.84,19.34-.81-.15-2.15,2.53-3.24,3.9,1.85.83,3.92,2.68,5.51,2.33,13.64-3.01,12.72,5.11,13.91,14.93,1.67,13.76-5.51,26.32-1.29,40.87,3.82,13.14.81,28.26.81,42.51,0,15.34-1.39,30.85.41,45.98,1.65,13.98-5.65,21.52-13.56,30.91-10.91,12.97-23.17,16.89-39.71,16.2-30.63-1.29-61.35-.37-92.04-.37Zm41.24-230.36c-17.48,0-34.96.24-52.43-.11-7.62-.15-8.63,3.57-8.63,9.98,0,6.42,1.02,10.04,8.63,9.98,33.86-.25,67.72-.25,101.58,0,7.61.06,8.63-3.57,8.63-9.98s-1.01-10.15-8.63-9.98c-16.38.36-32.77.11-49.15.11Zm-28.11,59.23c10.9,0,21.8-.06,32.7.02,8.76.07,7.43-6.55,6.62-11.31-.53-3.09-4.01-8.01-6.3-8.09-19.6-.65-39.23-.32-58.84-.39-8.76-.03-7.43,6.55-6.62,11.31.53,3.09,3.84,7.78,6.33,8.07,8.6,1,17.39.39,26.11.39Z"/><path class="cls-1" d="m372.1,104.24c-.93,11.74,2.4,28.05-3.95,33.97-6.57,6.11-22.53,2.46-34.39,2.49-14.88.03-14.94-.23-15.08-16.29-.1-12.04.24-24.08-.09-36.11-.34-12.52,6.26-22.28,14.24-30,5.41-5.23,17.54-11.2,21.41-8.71,8.02,5.17,18.97,11.21,17.3,25.07-1.17,9.71-.23,19.67-.23,29.52.26.02.53.04.79.06Z"/></svg>