<?xml version="1.0" encoding="UTF-8"?><svg id="Address" xmlns="http://www.w3.org/2000/svg" viewBox="0 0 400 400"><defs><style>.cls-1{fill:#6cf;}</style></defs><path class="cls-1" d="m199.17,320.9c-27.61-50.59-84.54-39.43-112.18-36.71-3.88.38-7.39,2.36-8.57,6.07l-15.57,49.08h273.74l-15.06-49.16c-.92-3.01-3.61-5.14-6.75-5.35l-32.25-2.19c-2.07-.14-3.39-2.26-2.63-4.2,3.86-9.83,6.93-18.6,10.34-18.6,7.39,0,20.62-.08,48.96-.08,10.47,33.57,21.32,68.31,32.84,105.24H27.98l32.79-106.97h79.77c-14.64-17.65-26.97-30.52-36.97-44.96-29.35-42.38-26.49-96.6,6.07-136,31.4-37.99,84.54-52.05,131.34-34.75,47.54,17.58,79.52,64.58,74.45,114.69-1.85,18.28-7.28,38.99-18.35,53.04-29.4,37.31-62.75,71.6-97.89,110.84Zm1.72-133.49c21.03-.6,38.39-19.03,37.31-39.61-1.09-20.72-20.16-37.41-41.03-35.92-19.78,1.41-35.84,18.51-35.69,38,.15,20.8,18.36,38.14,39.41,37.53Z"/></svg>