<?xml version="1.0" encoding="UTF-8"?><svg id="Jump" xmlns="http://www.w3.org/2000/svg" viewBox="0 0 400 400"><defs><style>.cls-1{fill:#6cf;}</style></defs><path class="cls-1" d="m346.58,68.1c-36.39,25.04-64.34,54.43-103.9,63.64-7.52,36.01-4.56,65.6,22.77,91,21.86,20.32,40.22,44.42,61.47,68.35-11.41,12.91-23.91,10.8-36.36.35-23.21-19.49-45.97-39.53-69.08-59.13-21.6-18.32-21.72-18.23-43.95.76-22.25,19.01-44.52,38.01-66.66,57.14-12.54,10.83-25.02,13.05-38.62,1.78,26.14-29.65,50.34-59.36,77.02-86.63,19.52-19.96,14.64-42.45,10.82-64.51-1.1-6.34-13-11.24-20.48-15.97-27.74-17.57-55.71-34.79-86.16-53.74,17.05-17.04,28.34-10.26,39.31-2.2,32.17,23.61,67.46,35.36,108.04,35.01,38.15-.34,71.94-10.33,102.53-32.49,11.01-7.98,21.81-17.03,43.27-3.35Z"/><path class="cls-1" d="m327.51,365c-42.62-4.97-85.24-13.82-127.86-13.83-42.52-.01-85.04,8.83-128.4,10.47,26.67-23.35,60.53-26.91,92.93-30.44,57.03-6.22,112.88.24,165.06,24.8-.58,3-1.15,6-1.73,9Z"/><path class="cls-1" d="m198.62,85.84c-12.34-.84-22.78-15.23-21.25-29.28,1.45-13.36,12.97-23.57,25.2-21.23,14.34,2.75,20.66,12.49,19.66,26.75-.94,13.45-12.26,24.53-23.61,23.76Z"/></svg>