<?xml version="1.0" encoding="UTF-8"?><svg id="Hand_With_Smartphone" xmlns="http://www.w3.org/2000/svg" viewBox="0 0 400 400"><defs><style>.cls-1{fill:#6cf;}</style></defs><path class="cls-1" d="m125.89,78.36c24.5,6.45,37.48,22.1,33.59,47.44-9.4,61.16-4.82,122.63-5.94,183.97-.17,9.24-.02,18.5-.02,30.25,40.62,0,80.71.51,120.78-.25,16.03-.3,29.51,3.32,42.31,17.29-6.66,2.85-12.48,7.45-18.35,7.52-49.73.58-99.47.5-149.2.1-5.49-.04-11.18-2.84-16.39-5.22-8.73-3.99-17.25-12.51-25.65-12.27-17.1.51-29.59-9.44-44.65-14.58-1.99-9.86-2.38-21.14-6.68-30.66-5.01-11.11,2.52-23.31-7.1-34.74-5.73-6.81.66-20.58-6.3-31.4-3.99-6.2-.86-16.38,6.08-24.83,16.79-20.45,31.01-42.99,46.67-64.39,11.1-15.17,21.47-30.12,21.64-50.32.05-5.91,5.9-11.77,9.24-17.92Z"/><path class="cls-1" d="m315.31,144.72c-8.81,2.62-15.21,4.52-22.73,6.75.19.2-2-1.04-2.01-2.29-.19-28.93-.15-57.87-.15-88h-53.27c-3.38,5.31-2.36,17.18-13.92,17.18-14.52,0-12.02-9.86-16.06-17.74h-51.58c-1.54,4.24-2.85,7.84-4.67,12.86-7.34-3.23-14.11-6.22-22.3-9.82,0-3.48-.41-7.53.08-11.47,1.51-12.25,5.42-16.92,16.3-16.98,50.81-.28,101.62-.28,152.42-.02,13.04.07,17.7,5.12,17.82,18.57.26,30.07.08,60.14.08,90.96Z"/><path class="cls-1" d="m270.68,218.31c5.45-2.92,10.95-8.2,16.76-8.56,18.46-1.13,37.04-.9,55.54-.26,14.47.5,20.61,13.52,12.46,25.03-3.53,4.98-7.29,9.8-7.91,10.63-17-1.99-28.58-4.8-40.02-4.34-15.5.62-28.42-1.56-36.82-22.5Z"/><path class="cls-1" d="m268.88,265.12c5.24-5.25,8.13-10.37,12.33-11.9,9.81-3.57,60.24.91,68.15,6.14,5.65,3.74,12.81,9.31,9.13,17.29-2.5,5.42-8.12,11.94-13.4,13.07-20.53,4.41-55.47-7.06-76.2-24.61Z"/><path class="cls-1" d="m323.28,341.37c-20.61-12.92-44.94-17.35-58.48-37.1,4.28-12.3,13.61-18.27,21.65-13.38,12.36,7.52,26.26,6.02,38.82,11.39,16.67,7.13,20.14,15.21,8.61,28.43-3.24,3.71-6.95,7.01-10.6,10.65Z"/><path class="cls-1" d="m277.2,187.42c1.42-5.08,1.26-12.49,4.83-15.57,6.35-5.48,14.68-9.11,22.73-12,4.58-1.65,10.23-.32,15.4-.29q25.57.15,25.69,28.58c-22.39,12.68-44.79,12.57-68.65-.71Z"/></svg>