<?xml version="1.0" encoding="UTF-8"?><svg id="Forest-2" xmlns="http://www.w3.org/2000/svg" viewBox="0 0 400 400"><defs><style>.cls-1{fill:#6cf;}</style></defs><path class="cls-1" d="m226.31,212.34c0-26.29-.24-47.16.13-68.02.14-7.7-2.89-18.04,10.02-18.96,11.85-.84,13.71,7.23,12.99,16.43-2.51,31.95,10.04,31.1,30.41,14.88,4.85-3.86,10.57-6.59,15.82-9.95,4.68-2.99,9.75-4.96,13.81.09,4.64,5.77-.35,9.24-4.23,12.64-.78.69-1.43,1.63-2.32,2.08-53.28,26.6-58.49,71.42-47.51,124.02,3.58,17.13,1.33,35.62.96,53.47-.24,11.22,6.13,25.67-15.72,25.97-19.16.26-23.31-8.07-20.76-24.34,3.16-20.14-3.84-28.37-24.99-26.9-26.48,1.84-59.97-8.75-50.3,39.84,2.04,10.25-6.61,11.28-14.34,10.92-7.19-.34-17.23-.17-15.36-10.32,9.19-49.84-25.6-39.33-52.46-41.03-10.15-.64-20.13-4-30.67-6.22,2-14.78,15.55-19.7,21.61-30.1,6.02-10.34,31.87-17.74,1.55-33.1-13.37-6.78,6.87-15.16,9.59-23.87,3.99-12.78,33.23-23.5.45-38.71-9.12-4.23,6.48-12.19,7.55-18.98,2.38-15.19,41.22-24.32,7.86-45.89-.82-.53,1.54-7.25,3.32-10.59,2.95-5.52,6.25-10.95,10.1-15.84,11.25-14.27,12.78-42.68,30.68-42.86,17.73-.18,18.07,27.4,26.04,42.64,7.7,14.73,11.67,11.48,18.29-.32,36.81-65.66,80.58-71.84,131.48-18.18,7.67,8.08,17.4,10.86,26.11,16.2,38.9,23.86,52.74,68.15,32.65,108.31-5.76,11.52-8.82,22.58-9.55,35.61-1.74,31.2-23.52,56.15-52.63,61.94-6.95,1.38-17.15,7.21-20.57-5.35-2.77-10.18-.51-16.82,12.18-19.91,27.05-6.59,38.77-26.05,36.62-53.93-.79-10.25,4.36-17.82,8.68-26.24,17.28-33.64,5.95-67-28.89-81.89-12.03-5.14-20.06-12.07-27.87-22.67-23.71-32.18-67.8-27.46-82.05,9.84-6.93,18.15-17.3,26.95-32.93,36.26-19.97,11.9-30.87,32.86-18.14,56.45,9.51,17.63,5.63,36.91,11.63,54.89,5.26,15.78,11.8,30.13,26.05,37.28,11.84,5.94,30.06,18.54,38.21,5.31,7.94-12.9,10.33-34.69-6.4-48.87-9.52-8.07-19.55-15.51-29.15-23.49-4.61-3.83-11.06-7.93-5.87-15.11,3.84-5.32,9.49-2.23,14.08-.1,9.23,4.29,18.29,8.97,33.85,16.67Z"/></svg>