<?xml version="1.0" encoding="UTF-8"?><svg id="Guardian" xmlns="http://www.w3.org/2000/svg" viewBox="0 0 400 400"><defs><style>.cls-1{fill:#6cf;}</style></defs><path class="cls-1" d="m383.06,343.83h-140.83c-9.26-20.39,7.47-51.91-28.4-63.37v64.62c-61.42,0-120.24-.13-179.07.08-16.95.06-20.82-10.91-19.53-23.57,3.7-36.46,8.37-72.84,13.38-109.15,2.12-15.35,14.52-21.34,28.14-22.99,74.14-8.97,148.98-22.62,201.07,53.4,11.78,17.19,37.85,22.23,57.8,20.62,62.06-5.02,72.99,3.52,68.48,64.04-.32,4.29-.55,8.59-1.04,16.32Z"/><path class="cls-1" d="m117.96,54.84c30.84,4.12,48.81,20.83,48.13,51.39-.69,30.88-13.74,57.37-49.23,56.54-33.5-.78-45.78-27.15-46.32-56.36-.56-30.16,17.15-47.43,47.41-51.57Z"/><path class="cls-1" d="m275.05,186.59c.4-11.67,10.43-28.75,35.87-29.05,25.24-.29,36.72,15.89,37.09,39.75.39,25.12-12.11,43.3-37.6,42.79-23.36-.47-35.68-17.76-35.36-53.49Z"/></svg>