<?xml version="1.0" encoding="UTF-8"?><svg id="Next" xmlns="http://www.w3.org/2000/svg" viewBox="0 0 400 400"><defs><style>.cls-1{fill:#6cf;}</style></defs><path class="cls-1" d="m363.64,198.48c0,29.29,1.97,58.74-.45,87.83-3.96,47.72-29.15,74.27-76.89,76.6-57.27,2.79-114.89,2.8-172.15-.04-47.68-2.36-74.15-28.96-76.47-76.79-2.79-57.35-2.81-115.06.03-172.41,2.36-47.77,28.89-74.24,76.68-76.58,57.27-2.8,114.89-2.81,172.15.03,47.72,2.36,72.7,28.93,76.71,76.78,2.35,28,.43,56.37.39,84.57Zm-94.63,1.18c-45.86-23.97-82.39-43.07-122.57-64.07v129.9c41.46-22.27,77.8-41.79,122.57-65.83Z"/></svg>