<?xml version="1.0" encoding="UTF-8"?><svg id="iPhone_SE" xmlns="http://www.w3.org/2000/svg" viewBox="0 0 400 400"><defs><style>.cls-1{fill:#6cf;}</style></defs><path class="cls-1" d="m97.62,200.49c0-42.74-.12-85.47.04-128.21.1-26.35,10.23-36.94,35.84-37.09,41.72-.25,83.44-.27,125.15.01,23.16.16,33.49,11.6,34.48,35.55.42,10.24.57,20.44.57,30.82,0,4.67,1.4,9.27,4.9,12.76,2.9,2.9,3.86,3.91,3.86,10.52,0,7.04-1.68,8.32-3.67,10.42-5.15,5.43-5.11,13.69-5.11,21.28,0,25.8.63,51.44-.39,77.05-1.29,32.51-.06,65.11-.36,97.67-.21,22.29-11.06,33.33-33.28,33.49-42.73.32-85.47.29-128.2.01-22.07-.14-33.56-11.28-33.73-33.03-.35-43.75-.1-87.51-.1-131.26Zm24.42-3.59c0,43.7.15,87.41-.14,131.11-.05,8.1.3,12.84,10.85,12.68,41.66-.62,83.34-.6,125,0,10.35.15,11.01-4.26,10.98-12.55-.25-83.34-.12-166.68-.17-250.03-.01-20.23-.12-19.39-19.81-18.94-8.68.2-12.91,5.01-17.17,10.19-5.68,6.91-12.72,8.72-20.99,8.72-10.12,0-20.62-.02-30.46-.02-8.87,0-15.94-1.08-20.85-8.75-6.39-9.99-16.05-9.76-26.45-10.08-10.43-.32-11.02,4.43-10.96,12.67.33,41.67.15,83.34.15,125.01Z"/></svg>