<?xml version="1.0" encoding="UTF-8"?><svg id="TikTok" xmlns="http://www.w3.org/2000/svg" viewBox="0 0 400 400"><defs><style>.cls-1{fill:#6cf;}</style></defs><path class="cls-1" d="m201.64,35.24c34.31,0,68.64-.65,102.93.17,38.5.92,59.43,21.32,59.88,59.8.82,69.76.81,139.54,0,209.29-.45,38.48-21.38,59.44-59.81,59.88-69.76.81-139.54.81-209.29,0-38.5-.44-59.38-21.35-59.82-59.81-.79-69.76-.79-139.54,0-209.29.44-38.57,21.22-58.96,59.75-59.86,35.44-.83,70.91-.18,106.36-.18Zm25.8,42.82c0,39.05.03,76.53-.01,114.02-.02,18.27.98,36.64-.55,54.8-2.04,24.13-19.94,40.9-42.09,41.96-22,1.05-42.49-15.93-45.9-38.02-3.31-21.48,10.16-41.75,33.41-49.29,7.27-2.36,15.02-3.25,24.63-5.24-1.36-11.09-2.53-20.55-3.65-29.67-47.33.98-75.41,20.28-86.18,57.07-9.51,32.5,3.96,67.6,33.15,86.39,52.56,33.84,117.74-.49,121.11-64.64,1.6-30.52.28-61.2.28-92.45,21.18,4.96,39.46,9.24,60.2,14.1v-35.06c-35.91-1.89-56.29-21.88-61.74-53.97h-32.64Z"/></svg>