<?xml version="1.0" encoding="UTF-8"?><svg id="Facebook-2" xmlns="http://www.w3.org/2000/svg" viewBox="0 0 400 400"><defs><style>.cls-1{fill:#6cf;}</style></defs><path class="cls-1" d="m257.89,199.02c-6.46-53.73-4.1-56.69,48.45-63.41,5.72-40.6-5.35-51.58-44.59-44.26-31.53,5.89-51.41,29.48-54.37,65.77-1.02,12.45-.16,25.06-.16,40.2-13.08,1.56-25,2.98-39.23,4.67v44.65c11.75.94,23.69,1.9,37.14,2.98v114.15c-41.39,0-83.3,2.7-124.65-.95-27.76-2.45-44.24-23.85-44.57-52.54-.84-73.13-1.07-146.3.03-219.42.49-32.81,21.34-54.36,53.69-54.92,73.01-1.27,146.07-1.22,219.09-.1,34.04.52,54.84,22.2,55.33,56.95,1,70.84.95,141.72.08,212.57-.47,38.16-21.67,58.01-60.26,59.38-14.73.52-29.49.08-46.65.08v-115.44c11.7-.74,23.77-1.51,37.62-2.39,2.75-14.98,5.34-29.09,8.29-45.19-16.09-1-29.58-1.83-45.24-2.8Z"/></svg>