<?xml version="1.0" encoding="UTF-8"?><svg id="Event_Accepted_Tentatively" xmlns="http://www.w3.org/2000/svg" viewBox="0 0 400 400"><defs><style>.cls-1{fill:#6cf;}</style></defs><path class="cls-1" d="m368.54,282.22c0,56.34-52.06,82.78-85.93,82.78-59.05,0-85.92-45.51-85.93-82.8,0-37.26,37.1-83.87,84.52-83.87,42.56,0,87.34,38.3,87.34,83.89Zm-23.46-.02c.01-32.81-28.95-62.02-62.41-62.97-34.27-.96-65.38,29.03-65.34,62.98.04,32.81,28.99,62.04,62.39,62.98,34.16.97,65.34-29.09,65.36-63Z"/><path class="cls-1" d="m86.94,36.21c6.24,7.51,12.22,14.71,20.77,25.02,9.08-9.99,15.88-17.47,23.83-26.22h84.83c6.48,7.43,13.19,15.12,22.54,25.83,8.77-9.45,15.63-16.84,23.67-25.51h53.31v69.42H31.46V36.21h55.48Z"/><path class="cls-1" d="m178.02,292.13c2.48,8.46,4.32,14.72,7.03,23.95H31.84V119.2h24.33v172.93h121.85Z"/><path class="cls-1" d="m137.58,250.35v-37.5c-7.47-9.1-14.75-17.98-24.73-30.13,13.56-3.98,24.38-7.16,37.08-10.89,6.69-9.39,14.35-20.15,23.93-33.6,8.72,12.31,15.77,22.27,23.6,33.33,10.85,3.27,22.7,6.84,36.32,10.95-14.9,21.34-28.07,40.21-38.8,55.58-20.86,4.46-37.79,8.08-57.41,12.28Z"/><path class="cls-1" d="m316.48,194.92c-9.28-2.8-16.21-4.89-24.62-7.43,0-10.96-.17-20.57.05-30.16.2-8.55.85-17.08,1.37-26.9h23.2v64.49Z"/><path class="cls-1" d="m305.81,314.69c-12.45-8.93-24.91-17.86-38.66-27.73,2.79-18.04,5.4-34.93,8.01-51.81,2.26-.33,4.53-.65,6.79-.98,10.28,25.45,20.55,50.9,30.83,76.36-2.33,1.39-4.65,2.77-6.98,4.16Z"/></svg>