<?xml version="1.0" encoding="UTF-8"?><svg id="Twitter_Squared" xmlns="http://www.w3.org/2000/svg" viewBox="0 0 400 400"><defs><style>.cls-1{fill:#6cf;}</style></defs><path class="cls-1" d="m35.11,200.82c0-36.63-.17-73.27.05-109.9.2-33.7,21.74-55.69,54.95-55.78,73.26-.2,146.53-.2,219.8,0,33.2.09,54.83,22.08,54.92,55.8.19,73.26.25,146.53-.03,219.8-.12,31.71-21.87,53.88-53.2,54.02-74.41.32-148.82.32-223.23,0-31.32-.14-52.91-22.32-53.19-54.04-.32-36.63-.07-73.26-.07-109.9Zm83.32-3.9c6.03,4.96,13.86,11.41,21.28,17.51-4.41,5.78-6.96,9.13-8.95,11.73,5.86,17.37,20.12,21.47,35.23,24.6-13.91,16.62-31.47,18.17-50.44,19.35,4.58,4.58,6.65,8.5,9.49,9.18,15.68,3.77,31.54,9.26,47.35,9.29,15.82.03,33.2-2.63,47.07-9.67,15.45-7.84,31.45-15.17,43.17-31.49,20.86-29.03,30.69-60.83,35.23-94.1,4.8-1.6,8.32-2.78,14.7-4.91-7.22-2.67-11.17-4.13-14.88-5.5,2.07-5.23,4.14-10.47,7.76-19.63-14.85,10.07-24.55,9-35.52,1.53-6.66-4.54-16.83-8.14-24.12-6.48-8.82,2.02-18.28,8.52-23.83,15.84-8.15,10.77-13.09,23.97-20.53,38.33-30.3-2.89-56.26-20.89-83.89-42.56,0,13.63-4.06,27.34.96,35.38,7.4,11.85-4.46,19.67-.08,31.59Z"/></svg>